<?xml version="1.0" encoding="utf-8"?>
<!-- Generator: Adobe Illustrator 21.0.0, SVG Export Plug-In . SVG Version: 6.00 Build 0)  -->
<svg version="1.1" id="Camada_1" xmlns="http://www.w3.org/2000/svg" xmlns:xlink="http://www.w3.org/1999/xlink" x="0px" y="0px"
	 viewBox="0 0 567.4 545.1" style="enable-background:new 0 0 567.4 545.1;" xml:space="preserve">
<style type="text/css">
	.st0{fill:#3C474D;}
	.st1{fill:#B11300;}
	.st2{fill:#FFFFFF;}
	.st3{fill:none;}
	.st4{fill:#C62721;}
	.st5{fill:#CD5658;}
</style>
<g>
	<path class="st1" d="M213.5,362.9c0-6.1-0.1-12.1,0.1-18.1c0-1,0.9-2.2,1.6-3.1c10.5-12.9,21-25.8,31.6-38.7
		c28-34.3,56-68.6,83.9-102.8c0.6-0.8,1.2-1.6,2.2-2.8c-10.1-0.1-19.6-0.1-29.2-0.1c-9.7,0-19.5,0-29.2,0c-9.6,0-19.3,0-28.9,0
		c-9.6,0-19.2,0-29,0c0-7.4,0-14.3,0-21.5c49.6,0,99,0,148.7,0c0.1,0.9,0.2,1.7,0.2,2.6c0,4.5-0.1,9,0.1,13.5c0.1,2.2-0.6,4-2,5.7
		c-13.6,16.6-27.2,33.2-40.8,49.9c-24.8,30.4-49.6,60.8-74.4,91.2c-0.7,0.8-1.3,1.7-2.4,3c41.1,0,81.5,0,122.3,0
		c0.3,7.3,0.2,14.2,0.1,21.2C365.9,363.5,217.2,363.6,213.5,362.9z"/>
	<path class="st0" d="M515.1,146.3c-1,1.7-2,3.4-3.1,5c-7.6,10.9-15.4,21.6-22.8,32.7c-1.5,2.2-2.2,5.6-1.7,8.2
		c5,25.6,10.3,51.1,15.9,76.6c0.8,3.8,3.5,7.8,6.5,10.4c8.5,7.4,17.8,13.9,26.5,21.2c1.8,1.5,3.3,4.7,3,6.9
		c-1.3,9.9-3.5,19.7-4.9,29.6c-0.7,4.7-2.9,6.6-7.4,7.2c-11,1.5-22,3.2-32.8,5.2c-2.4,0.4-5.3,2.2-6.5,4.2
		c-17.1,27.3-34,54.7-50.7,82.2c-1.3,2.2-1.3,5.9-0.7,8.5c2.6,10.6,5.4,21,8.6,31.4c1.1,3.6,0.5,5.5-2.7,7.5
		c-6.8,4.2-13.6,8.7-20.1,13.3c-3,2.2-5.2,1.8-8-0.5c-8.4-6.9-17-13.7-25.8-20c-2.3-1.7-6-2.9-8.7-2.5c-31.8,4.6-63.6,9.5-95.4,14.6
		c-2.5,0.4-5.1,3.1-6.6,5.4c-6.1,9.3-11.8,18.8-17.5,28.3c-1.8,3-3.6,4.1-7.4,3.2c-10.1-2.7-20.3-4.6-30.4-7.3
		c-2.1-0.6-4.7-3.1-5.3-5.3c-3.5-11.2-6.2-22.7-9.6-33.9c-0.9-3-3-6.4-5.6-8.2c-21.7-15.2-43.6-30.2-65.7-45.1
		c-2.1-1.4-5.6-2-8.2-1.5c-13.2,2.5-26.4,5.3-39.5,8.4c-3.7,0.9-6,0.4-8.1-3c-5.1-8.1-10.4-16.1-15.9-23.9c-2.2-3.2-2.2-5.6,0-8.8
		c7.5-11.2,14.9-22.5,21.9-34c1.7-2.9,2.7-7,2.2-10.3c-4.5-27.2-9.2-54.4-14.4-81.5c-0.6-3.3-3.5-6.9-6.4-8.8
		c-10.4-6.7-21.2-12.8-32-19c-3.5-2-4.9-4.1-3.8-8.3c2.3-8.8,4.1-17.8,5.8-26.7c0.7-3.8,2.2-5.5,6.3-5.8c12.8-1,25.6-2.2,38.3-3.8
		c2.6-0.3,5.8-2.1,7.2-4.2c16-25.4,31.9-50.9,47.5-76.5c1.5-2.5,1.7-6.3,1.2-9.3C136,95.6,133.6,83,131,70.5
		c-0.9-4.3,0.2-6.9,3.9-9.1c6.3-3.8,12.5-7.9,18.5-12.2c3-2.2,5.2-1.9,8.1,0.1c11.2,7.5,22.4,15,33.9,22.2c2.3,1.4,5.7,2.2,8.4,1.8
		c29.2-4.3,58.5-8.7,87.6-13.6c3-0.5,6.5-3.4,8.1-6.1c6.4-10.9,12-22.2,18.3-33.1c1-1.8,4.4-3.5,6.4-3.2c9.9,1.4,19.7,3.2,29.4,5.6
		c1.9,0.5,4.2,3.6,4.5,5.7c2.1,13.1,3.5,26.3,5.6,39.4c0.3,2.2,1.9,4.9,3.7,6c24,15.7,48.1,31.3,72.4,46.7c2.3,1.4,5.7,2,8.4,1.5
		c12.9-2,25.7-4.4,38.5-6.9c4.9-1,8.4-0.3,11.2,4.7c4.5,7.9,9.9,15.3,15,23C513.7,143.8,514.3,145,515.1,146.3z M289.4,413.7
		c77.3,1.2,143.2-63.6,144.4-142c1.2-80.9-61.9-146.1-142.7-147.3c-79.7-1.2-145.5,62.2-146.8,141.3
		C143,347.5,206.6,412.4,289.4,413.7z"/>
</g>
</svg>
