<?xml version="1.0" encoding="utf-8"?>
<!-- Generator: Adobe Illustrator 21.0.0, SVG Export Plug-In . SVG Version: 6.00 Build 0)  -->
<svg version="1.1" id="Camada_1" xmlns="http://www.w3.org/2000/svg" xmlns:xlink="http://www.w3.org/1999/xlink" x="0px" y="0px"
	 viewBox="0 0 1001 441.7" style="enable-background:new 0 0 1001 441.7;" xml:space="preserve">
<style type="text/css">
	.st0{fill:#3C474D;}
	.st1{fill:#B11300;}
	.st2{fill:#FFFFFF;}
	.st3{fill:none;}
	.st4{fill:#C62721;}
	.st5{fill:#CD5658;}
</style>
<g>
	<path class="st0" d="M116.5,334.4h-22v-7.9H148v7.9h-22.1v64.4h-9.4V334.4z"/>
	<path class="st0" d="M349,361.8c0,24.9-15.1,38.1-33.6,38.1c-19.1,0-32.5-14.8-32.5-36.7c0-23,14.3-38,33.6-38
		C336.2,325.3,349,340.4,349,361.8z M292.9,363c0,15.4,8.4,29.3,23.1,29.3c14.8,0,23.2-13.6,23.2-30c0-14.4-7.5-29.4-23.1-29.4
		C300.6,332.9,292.9,347.1,292.9,363z"/>
	<path class="st0" d="M556.9,361.8c0,24.9-15.1,38.1-33.6,38.1c-19.1,0-32.5-14.8-32.5-36.7c0-23,14.3-38,33.6-38
		C544.2,325.3,556.9,340.4,556.9,361.8z M500.8,363c0,15.4,8.4,29.3,23.1,29.3c14.8,0,23.2-13.6,23.2-30c0-14.4-7.5-29.4-23.1-29.4
		C508.6,332.9,500.8,347.1,500.8,363z"/>
	<path class="st0" d="M886.5,387.4c4.2,2.6,10.3,4.7,16.7,4.7c9.5,0,15.1-5,15.1-12.3c0-6.8-3.9-10.6-13.6-14.4
		c-11.8-4.2-19.1-10.3-19.1-20.5c0-11.3,9.3-19.6,23.4-19.6c7.4,0,12.8,1.7,16,3.5l-2.6,7.6c-2.4-1.3-7.2-3.4-13.7-3.4
		c-9.9,0-13.6,5.9-13.6,10.8c0,6.8,4.4,10.1,14.4,13.9c12.2,4.7,18.4,10.6,18.4,21.2c0,11.2-8.3,20.8-25.3,20.8
		c-7,0-14.6-2-18.4-4.6L886.5,387.4z"/>
</g>
<g id="kURwDp.tif_2_">
	<g>
		<path class="st1" d="M59,307.4c0-78.6,0-156.9,0-235.4c299.3,0,598.4,0,897.5,0c0,0,0.1,0.1,0.1,0.1c0.1,0.1,0.2,0.1,0.2,0.2
			c0,1.1,0.1,2.3,0.1,3.4c0,77.1,0,154.2,0,231.1c-0.2,0.3-0.3,0.3-0.4,0.4c-0.1,0.1-0.1,0.2-0.2,0.2c-298.6,0-597.3,0.1-895.9,0.1
			C60.1,307.5,59.6,307.5,59,307.4z M418,271.8c1.2,0,2.4,0,3.5,0c17.9,0,35.8,0,53.7,0c3.9,0,7.7-0.1,11.6-0.4
			c8.3-0.6,16.3-2.2,23.9-5.7c11.1-5,19.1-12.9,22.8-24.7c2.4-7.5,2.7-15.2,1.6-22.9c-1-7.5-3.8-14.4-8.7-20.3
			c-5.8-7-13.3-11.2-21.9-13.7c-0.7-0.2-1.4-0.4-2.5-0.8c1.5-0.4,2.4-0.6,3.3-0.8c11.9-3.2,19.5-10.7,22.2-22.8
			c0.8-3.7,1.2-7.5,1.2-11.2c0.3-17.1-8.2-29.7-24.3-36c-8-3.2-16.4-4.6-24.9-4.7c-19.8-0.2-39.6-0.1-59.5-0.1c-0.7,0-1.3,0.2-2,0.2
			C418,162.5,418,216.9,418,271.8z M571.5,271.8c1.3,0,2.4,0,3.5,0c18,0,36,0.1,53.9,0c5.3,0,10.7-0.3,16-0.9
			c7.1-0.7,14-2.6,20.4-5.7c10.2-5,17.7-12.5,21.3-23.5c2.3-6.9,2.8-14.1,2.1-21.3c-0.7-7.6-3-14.6-7.6-20.7
			c-5.6-7.6-13.1-12.3-21.9-15.1c-1.1-0.4-2.3-0.7-3.6-1.1c0.3-0.2,0.3-0.3,0.4-0.3c0.8-0.2,1.7-0.4,2.5-0.7
			c11-3,18.5-9.7,21.8-20.7c2.1-7.3,2.3-14.7,1-22.1c-1.5-8.1-5.4-15-11.8-20.3c-3.5-2.9-7.5-5.2-11.8-6.9c-8-3.2-16.4-4.6-24.9-4.7
			c-19.8-0.2-39.6-0.1-59.5-0.1c-0.7,0-1.3,0.1-2,0.2C571.5,162.5,571.5,217,571.5,271.8z M94.6,271.4c3.2,0.6,133.3,0.5,135.4-0.1
			c0-6,0.2-12.1-0.1-18.5c-35.6,0-71,0-106.9,0c0.9-1.2,1.5-1.9,2.1-2.6c21.7-26.6,43.4-53.1,65.1-79.7
			c11.9-14.5,23.7-29.1,35.6-43.6c1.3-1.5,1.8-3,1.7-5c-0.1-3.9,0-7.9,0-11.8c0-0.8-0.1-1.5-0.2-2.3c-43.4,0-86.6,0-130,0
			c0,6.3,0,12.3,0,18.8c8.5,0,16.9,0,25.3,0c8.4,0,16.8,0,25.3,0c8.5,0,17,0,25.5,0c8.4,0,16.7-0.1,25.5,0.1
			c-0.8,1.1-1.3,1.8-1.9,2.5c-24.5,30-48.9,59.9-73.4,89.9c-9.2,11.3-18.4,22.6-27.6,33.9c-0.6,0.8-1.4,1.8-1.4,2.7
			C94.5,260.8,94.6,266,94.6,271.4z M265.8,271.6c5.1-14,10.1-27.9,15-41.7c25.1,0,49.8,0,74.6,0c5,14,10,27.9,15,41.7
			c5.4,0.6,21.6,0.4,23.4-0.4c-21-54.4-42-108.9-62.9-163.3c-8.7,0-17.1,0-25.7,0c-21.1,54.6-42.1,109.1-63.2,163.8
			C250.1,271.6,257.8,271.6,265.8,271.6z M853.5,166.3c-0.7-1-1.2-1.8-1.8-2.6c-12-18.1-23.9-36.1-35.8-54.2c-0.9-1.4-1.9-2-3.6-1.9
			c-6.6,0.1-13.2,0-19.7,0c-0.8,0-1.5,0.1-2.7,0.2c0.8,1.2,1.3,2.2,1.9,3.1c15.9,24.1,31.8,48.1,47.8,72.2c1,1.6,1.1,2.6,0,4.2
			c-7.1,10.5-14.2,21.1-21.2,31.7c-11.2,16.7-22.3,33.4-33.5,50.1c-0.5,0.7-0.9,1.5-1.5,2.6c1.4,0.1,2.2,0.1,3.1,0.1
			c6,0,11.9-0.1,17.9,0.1c2.1,0.1,3.3-0.7,4.5-2.4c14.1-21.2,28.2-42.3,42.3-63.5c0.5-0.8,1.1-1.6,1.7-2.6c0.6,0.9,1.2,1.6,1.6,2.3
			c4.6,6.9,9.2,13.9,13.8,20.8c9.5,14.4,19.1,28.8,28.6,43.2c0.7,1.1,1.4,2.1,3,2c7.1-0.1,14.2,0,21.3-0.1c0.5,0,0.9-0.2,1.6-0.4
			c-19.2-29.1-38.3-57.9-57.4-86.8c4.4-6.6,8.6-12.9,12.9-19.2c4.2-6.3,8.5-12.7,12.7-19c4.3-6.4,8.6-12.8,12.8-19.3
			c4.2-6.3,8.6-12.5,12.8-19.4c-1.4,0-2.3,0-3.1,0c-6.1,0-12.1,0.1-18.2-0.1c-2,0-3.1,0.7-4.2,2.3c-11.9,18-23.9,35.9-35.9,53.8
			C854.7,164.5,854.2,165.3,853.5,166.3z M747.2,271.3c0.5-3.8,0.3-161.7-0.2-163.5c-3.6-0.4-20.1-0.3-22.1,0.2
			c0,54.4,0,108.9,0,163.3C727.2,271.9,745,271.9,747.2,271.3z"/>
		<path class="st2" d="M418,271.8c0-54.8,0-109.3,0-163.9c0.7-0.1,1.4-0.2,2-0.2c19.8,0,39.6-0.1,59.5,0.1
			c8.5,0.1,16.9,1.5,24.9,4.7c16,6.4,24.5,18.9,24.3,36c-0.1,3.7-0.4,7.6-1.2,11.2c-2.7,12.1-10.3,19.6-22.2,22.8
			c-0.9,0.3-1.9,0.5-3.3,0.8c1.1,0.4,1.8,0.6,2.5,0.8c8.6,2.5,16.2,6.7,21.9,13.7c4.9,5.9,7.7,12.7,8.7,20.3
			c1,7.7,0.7,15.4-1.6,22.9c-3.7,11.8-11.8,19.7-22.8,24.7c-7.6,3.5-15.7,5.1-23.9,5.7c-3.8,0.3-7.7,0.3-11.6,0.4
			c-17.9,0-35.8,0-53.7,0C420.4,271.8,419.2,271.8,418,271.8z M440.7,193.5c0,20.1,0,39.8,0,59.7c0.6,0.1,1,0.1,1.5,0.1
			c12.3,0,24.5,0.1,36.8,0c6.1-0.1,12-1,17.7-3.4c7.1-3.1,11.7-8.4,13.8-15.9c1.5-5.3,1.6-10.7,1-16.2c-1.2-11.6-7.5-18.9-18.6-22.2
			c-5-1.5-10.1-2-15.3-2c-11.3,0-22.6,0-33.9,0C442.7,193.5,441.8,193.5,440.7,193.5z M440.7,175.2c1.2,0,2.2,0,3.1,0
			c3.9,0,7.9,0,11.8,0c7.8,0,15.6,0,23.4-0.2c5.4-0.2,10.6-1.3,15.5-3.7c5.8-2.9,9.5-7.5,10.7-13.8c0.5-2.9,0.8-5.9,0.6-8.9
			c-0.5-10.6-5.8-17.2-15.9-20.4c-4.9-1.5-9.9-2.1-15-2.1c-10.6,0-21.2,0-31.8,0c-0.8,0-1.5,0.1-2.3,0.2
			C440.7,142.6,440.7,158.7,440.7,175.2z"/>
		<path class="st2" d="M571.5,271.8c0-54.8,0-109.2,0-163.9c0.7-0.1,1.3-0.2,2-0.2c19.8,0,39.7-0.1,59.5,0.1
			c8.5,0.1,16.9,1.5,24.9,4.7c4.3,1.7,8.2,3.9,11.8,6.9c6.4,5.3,10.3,12.1,11.8,20.3c1.4,7.4,1.1,14.9-1,22.1
			c-3.2,11.1-10.7,17.8-21.8,20.7c-0.8,0.2-1.7,0.4-2.5,0.7c-0.1,0-0.1,0.1-0.4,0.3c1.3,0.4,2.4,0.8,3.6,1.1
			c8.9,2.8,16.4,7.5,21.9,15.1c4.5,6.2,6.9,13.2,7.6,20.7c0.7,7.2,0.2,14.4-2.1,21.3c-3.7,10.9-11.1,18.5-21.3,23.5
			c-6.4,3.2-13.3,5-20.4,5.7c-5.3,0.6-10.7,0.8-16,0.9c-18,0.1-36,0-53.9,0C573.9,271.8,572.8,271.8,571.5,271.8z M594.3,193.5
			c-0.6,3-0.5,57.7,0.1,59.7c0.5,0,1,0.1,1.5,0.1c12.1,0,24.2,0.1,36.3,0c6.2-0.1,12.2-1,18-3.4c6.9-3,11.4-8,13.5-15.1
			c1.7-5.7,1.9-11.5,1.1-17.4c-1.4-11.3-7.5-18.6-18.5-21.7c-5.1-1.5-10.3-2-15.6-2c-11.1,0-22.3,0-33.4,0
			C596.4,193.5,595.4,193.5,594.3,193.5z M594.1,175.2c1.2,0,2.2,0,3.1,0c5.6,0,11.2,0,16.8,0c6.2,0,12.4,0,18.7-0.2
			c5.3-0.2,10.4-1.3,15.2-3.7c5.5-2.7,9.2-7,10.5-13c0.6-2.8,0.9-5.7,0.9-8.6c0-10.9-5.5-18.2-15.9-21.5c-4.9-1.5-9.9-2.1-15-2.1
			c-10.7,0-21.4,0-32.1,0c-0.8,0-1.5,0.1-2.4,0.2C594.1,142.6,594.1,158.7,594.1,175.2z"/>
		<path class="st2" d="M94.6,271.4c0-5.4-0.1-10.6,0.1-15.9c0-0.9,0.8-1.9,1.4-2.7c9.2-11.3,18.4-22.6,27.6-33.9
			c24.5-30,48.9-59.9,73.4-89.9c0.5-0.7,1-1.4,1.9-2.5c-8.8-0.1-17.2,0-25.5-0.1c-8.5,0-17,0-25.5,0c-8.4,0-16.8,0-25.3,0
			c-8.4,0-16.8,0-25.3,0c0-6.4,0-12.5,0-18.8c43.3,0,86.6,0,130,0c0.1,0.8,0.2,1.5,0.2,2.3c0,3.9-0.1,7.9,0,11.8
			c0.1,2-0.5,3.5-1.7,5c-11.9,14.5-23.8,29.1-35.6,43.6c-21.7,26.6-43.4,53.1-65.1,79.7c-0.6,0.7-1.2,1.5-2.1,2.6
			c35.9,0,71.3,0,106.9,0c0.3,6.4,0.1,12.5,0.1,18.5C227.9,271.9,97.8,272,94.6,271.4z"/>
		<path class="st2" d="M265.8,271.6c-8,0-15.7,0-23.9,0c21.1-54.8,42.2-109.3,63.2-163.8c8.6,0,17.1,0,25.7,0
			c21,54.5,42,108.9,62.9,163.3c-1.8,0.8-17.9,1-23.4,0.4c-4.9-13.8-9.9-27.7-15-41.7c-24.9,0-49.6,0-74.6,0
			C275.9,243.7,270.9,257.6,265.8,271.6z M348.3,210.9c-10.1-26.9-20-53.6-30.1-80.5c-1.8,3.3-29.7,78.6-29.9,80.5
			C308.2,210.9,328,210.9,348.3,210.9z"/>
		<path class="st2" d="M853.5,166.3c0.7-1,1.2-1.8,1.8-2.6c12-17.9,24-35.9,35.9-53.8c1.1-1.7,2.2-2.4,4.2-2.3
			c6,0.1,12.1,0.1,18.2,0.1c0.9,0,1.7,0,3.1,0c-4.2,6.9-8.6,13-12.8,19.4c-4.3,6.4-8.6,12.8-12.8,19.3c-4.2,6.3-8.5,12.7-12.7,19
			c-4.2,6.3-8.5,12.7-12.9,19.2c19.1,28.9,38.2,57.7,57.4,86.8c-0.7,0.2-1.2,0.4-1.6,0.4c-7.1,0-14.2,0-21.3,0.1c-1.7,0-2.3-0.9-3-2
			c-9.5-14.4-19.1-28.8-28.6-43.2c-4.6-6.9-9.2-13.9-13.8-20.8c-0.5-0.7-1-1.4-1.6-2.3c-0.7,1-1.2,1.8-1.7,2.6
			c-14.1,21.1-28.3,42.3-42.3,63.5c-1.1,1.7-2.4,2.5-4.5,2.4c-6-0.1-11.9,0-17.9-0.1c-0.9,0-1.7-0.1-3.1-0.1c0.6-1.1,1-1.9,1.5-2.6
			c11.2-16.7,22.3-33.4,33.5-50.1c7.1-10.6,14.1-21.2,21.2-31.7c1.1-1.6,1-2.6,0-4.2c-16-24-31.9-48.1-47.8-72.2
			c-0.6-0.9-1.2-1.9-1.9-3.1c1.2-0.1,1.9-0.2,2.7-0.2c6.6,0,13.2,0.1,19.7,0c1.7,0,2.7,0.5,3.6,1.9c11.9,18.1,23.9,36.1,35.8,54.2
			C852.2,164.5,852.8,165.3,853.5,166.3z"/>
		<path class="st2" d="M747.2,271.3c-2.2,0.6-20,0.6-22.3,0c0-54.4,0-108.9,0-163.3c2-0.5,18.5-0.7,22.1-0.2
			C747.5,109.6,747.7,267.6,747.2,271.3z"/>
		<path class="st1" d="M440.7,193.5c1.1,0,2,0,2.8,0c11.3,0,22.6,0,33.9,0c5.2,0,10.3,0.6,15.3,2c11.2,3.3,17.4,10.6,18.6,22.2
			c0.6,5.4,0.5,10.9-1,16.2c-2.1,7.5-6.6,12.8-13.8,15.9c-5.6,2.5-11.6,3.4-17.7,3.4c-12.3,0.2-24.5,0.1-36.8,0
			c-0.4,0-0.8-0.1-1.5-0.1C440.7,233.4,440.7,213.6,440.7,193.5z"/>
		<path class="st1" d="M440.7,175.2c0-16.5,0-32.6,0-48.9c0.8-0.1,1.6-0.2,2.3-0.2c10.6,0,21.2,0,31.8,0c5.1,0,10.2,0.5,15,2.1
			c10.2,3.2,15.4,9.8,15.9,20.4c0.1,2.9-0.1,6-0.6,8.9c-1.2,6.3-4.9,11-10.7,13.8c-4.9,2.4-10.1,3.6-15.5,3.7
			c-7.8,0.2-15.6,0.2-23.4,0.2c-3.9,0-7.9,0-11.8,0C442.8,175.2,441.9,175.2,440.7,175.2z"/>
		<path class="st1" d="M594.3,193.5c1.1,0,2,0,3,0c11.1,0,22.3,0,33.4,0c5.3,0,10.5,0.6,15.6,2c11,3.2,17.1,10.4,18.5,21.7
			c0.8,5.9,0.6,11.7-1.1,17.4c-2.1,7.2-6.7,12.2-13.5,15.1c-5.7,2.5-11.8,3.4-18,3.4c-12.1,0.2-24.2,0-36.3,0c-0.5,0-1-0.1-1.5-0.1
			C593.8,251.2,593.7,196.5,594.3,193.5z"/>
		<path class="st1" d="M594.1,175.2c0-16.5,0-32.6,0-48.9c0.8-0.1,1.6-0.2,2.4-0.2c10.7,0,21.4,0,32.1,0c5.1,0,10.1,0.6,15,2.1
			c10.4,3.3,15.9,10.6,15.9,21.5c0,2.9-0.3,5.8-0.9,8.6c-1.4,6-5.1,10.3-10.5,13c-4.8,2.4-9.9,3.5-15.2,3.7
			c-6.2,0.2-12.4,0.2-18.7,0.2c-5.6,0-11.2,0-16.8,0C596.3,175.2,595.3,175.2,594.1,175.2z"/>
		<path class="st1" d="M348.3,210.9c-20.3,0-40.1,0-60,0c0.1-1.9,28-77.2,29.9-80.5C328.2,157.3,338.2,183.9,348.3,210.9z"/>
	</g>
</g>
<g>
	<g>
		<g>
			<path class="st0" d="M714.2,337.8c2.3-2,3.7-4.5,4-7.6c0.5-4.2-2.4-9.1-6-10.1c0,2,0,4,0,6c0,3.3-1.9,5.3-4.7,5.4
				c-2.9,0-4.7-2-4.7-5.3c0-2,0-4.1,0-6.5c-0.9,0.6-1.4,0.9-1.9,1.3c-5.4,4.2-5.5,12.1-0.3,16.6c0.6,0.5,1.2,1.5,1.2,2.2
				c0.1,14.1,0.1,28.2,0,42.3c0,0.7-0.3,1.6-0.8,2.1c-3,3.8-2.9,8.8,0.5,12c3.3,3.1,8.4,3.2,11.7,0.2c3.5-3.2,3.8-8.2,0.8-12.1
				c-0.5-0.6-0.8-1.5-0.8-2.3c-0.1-14-0.1-28.1,0-42.1C713.2,339.2,713.7,338.3,714.2,337.8z M711.8,392.6l-4.2,2.4l-4.2-2.4v-4.9
				l4.2-2.4l4.2,2.4V392.6z"/>
		</g>
	</g>
	<g>
		<g>
			<path class="st0" d="M760,396.8c2,2.3,4.5,3.7,7.6,4c4.2,0.5,9.1-2.4,10.1-6c-2,0-4,0-6,0c-3.3,0-5.3-1.9-5.4-4.7
				c0-2.9,2-4.7,5.3-4.7c2,0,4.1,0,6.5,0c-0.6-0.9-0.9-1.4-1.3-1.9c-4.2-5.4-12.1-5.5-16.6-0.3c-0.5,0.6-1.5,1.2-2.2,1.2
				c-14.1,0.1-28.2,0.1-42.3,0c-0.7,0-1.6-0.3-2.1-0.8c-3.8-3-8.8-2.9-12,0.5c-3.1,3.3-3.2,8.4-0.2,11.7c3.2,3.5,8.2,3.8,12.1,0.8
				c0.6-0.5,1.5-0.8,2.3-0.8c14-0.1,28.1-0.1,42.1,0C758.6,395.9,759.5,396.3,760,396.8z M703.4,387.8l4.2-2.4l4.2,2.4v4.9l-4.2,2.4
				l-4.2-2.4V387.8z"/>
		</g>
	</g>
</g>
</svg>
